HIERARCHY
ROOT Hips
{
	OFFSET 0.000000 0.000000 0.000000
	CHANNELS 6 Xposition Yposition Zposition Xrotation Yrotation Zrotation
	JOINT LeftUpLeg_virtual
	{
		OFFSET 0.000000 0.000000 0.000000
		CHANNELS 3 Xrotation Yrotation Zrotation
		JOINT LeftUpLeg
		{
			OFFSET 13.026900 -6.336304 -1.092800
			CHANNELS 3 Xrotation Yrotation Zrotation
			JOINT LeftLeg
			{
				OFFSET 0.524474 -46.096886 9.782700
				CHANNELS 3 Xrotation Yrotation Zrotation
				JOINT LeftFoot
				{
					OFFSET -0.524474 -53.427422 -12.948200
					CHANNELS 3 Xrotation Yrotation Zrotation
					JOINT LeftToeBase
					{
						OFFSET 0.192200 -14.009700 16.364100
						CHANNELS 3 Xrotation Yrotation Zrotation
						JOINT LeftToe_End
						{
							OFFSET -1.784700 -0.561700 9.474800
							CHANNELS 3 Xrotation Yrotation Zrotation
							End Site
							{
								OFFSET 0 0 0
							}
						}
					}
				}
			}
		}
	}
	JOINT RightUpLeg_virtual
	{
		OFFSET 0.000000 0.000000 0.000000
		CHANNELS 3 Xrotation Yrotation Zrotation
		JOINT RightUpLeg
		{
			OFFSET -12.883000 -6.336304 -1.092800
			CHANNELS 3 Xrotation Yrotation Zrotation
			JOINT RightLeg
			{
				OFFSET -0.524587 -46.096825 9.782800
				CHANNELS 3 Xrotation Yrotation Zrotation
				JOINT RightFoot
				{
					OFFSET 0.524587 -53.427383 -12.948300
					CHANNELS 3 Xrotation Yrotation Zrotation
					JOINT RightToeBase
					{
						OFFSET -0.192200 -14.009700 16.364100
						CHANNELS 3 Xrotation Yrotation Zrotation
						JOINT RightToe_End
						{
							OFFSET 1.784700 -0.561700 9.474800
							CHANNELS 3 Xrotation Yrotation Zrotation
							End Site
							{
								OFFSET 0 0 0
							}
						}
					}
				}
			}
		}
	}
	JOINT Spine_virtual
	{
		OFFSET 0.000000 0.000000 0.000000
		CHANNELS 3 Xrotation Yrotation Zrotation
		JOINT Spine
		{
			OFFSET 0.072000 7.257294 -0.789700
			CHANNELS 3 Xrotation Yrotation Zrotation
			JOINT Spine1
			{
				OFFSET 0.000000 12.508769 -0.658067
				CHANNELS 3 Xrotation Yrotation Zrotation
				JOINT Spine1_split
				{
					OFFSET 0.000000 12.508769 -0.658067
					CHANNELS 3 Xrotation Yrotation Zrotation
					JOINT Spine2
					{
						OFFSET 0.000000 12.508769 -0.658067
						CHANNELS 3 Xrotation Yrotation Zrotation
						JOINT Neck_virtual
						{
							OFFSET 0.000000 0.000000 0.000000
							CHANNELS 3 Xrotation Yrotation Zrotation
							JOINT Neck
							{
								OFFSET 0.000000 14.033295 7.520400
								CHANNELS 3 Xrotation Yrotation Zrotation
								JOINT Head
								{
									OFFSET 0.000000 8.198502 5.703100
									CHANNELS 3 Xrotation Yrotation Zrotation
									JOINT HeadTop_End
									{
										OFFSET 0.000000 17.760803 13.332701
										CHANNELS 3 Xrotation Yrotation Zrotation
										End Site
										{
											OFFSET 0 0 0
										}
									}
								}
							}
						}
						JOINT LeftShoulder_virtual
						{
							OFFSET 0.000000 0.000000 0.000000
							CHANNELS 3 Xrotation Yrotation Zrotation
							JOINT LeftShoulder
							{
								OFFSET 6.292450 5.785301 -0.669000
								CHANNELS 3 Xrotation Yrotation Zrotation
								JOINT LeftShoulder_split
								{
									OFFSET 6.292450 5.785301 -0.669000
									CHANNELS 3 Xrotation Yrotation Zrotation
									JOINT LeftArm
									{
										OFFSET 13.907140 -6.093903 1.965100
										CHANNELS 3 Xrotation Yrotation Zrotation
										JOINT LeftForeArm
										{
											OFFSET 34.140198 0.000000 0.000000
											CHANNELS 3 Xrotation Yrotation Zrotation
											JOINT LeftHand
											{
												OFFSET 40.960209 0.000000 0.000000
												CHANNELS 3 Xrotation Yrotation Zrotation
												End Site
												{
													OFFSET 0 0 0
												}
											}
										}
									}
								}
							}
						}
						JOINT RightShoulder_virtual
						{
							OFFSET 0.000000 0.000000 0.000000
							CHANNELS 3 Xrotation Yrotation Zrotation
							JOINT RightShoulder
							{
								OFFSET -6.292450 5.785301 -0.669000
								CHANNELS 3 Xrotation Yrotation Zrotation
								JOINT RightShoulder_split
								{
									OFFSET -6.292450 5.785301 -0.669000
									CHANNELS 3 Xrotation Yrotation Zrotation
									JOINT RightArm
									{
										OFFSET -13.907140 -6.093903 1.965100
										CHANNELS 3 Xrotation Yrotation Zrotation
										JOINT RightForeArm
										{
											OFFSET -34.140198 0.000000 0.000000
											CHANNELS 3 Xrotation Yrotation Zrotation
											JOINT RightHand
											{
												OFFSET -40.960209 0.000000 0.000000
												CHANNELS 3 Xrotation Yrotation Zrotation
												End Site
												{
													OFFSET 0 0 0
												}
											}
										}
									}
								}
							}
						}
					}
				}
			}
		}
	}
}
MOTION
Frames: 12
Frame Time: 0.03333333
7.463259 116.792847 -10.269655 0.000000 0.000000 0.000000 -0.186362 8.528743 2.231809 -9.428694 9.107548 1.369678 17.996307 3.216435 5.548114 -6.141003 -0.120189 -8.770660 -2.135841 -3.381586 2.232064 0.000000 0.000000 0.000000 0.084653 7.490564 2.153716 0.262975 -9.075484 -0.777521 14.430523 0.819079 -2.014255 -16.418100 -24.730527 8.374655 0.933810 2.851769 -5.956848 0.000000 0.000000 0.000000 0.374676 9.057562 1.503501 2.866120 -1.348454 1.212354 -0.293840 0.166719 1.771569 0.136553 -0.404269 0.013088 0.000000 0.000000 0.000000 1.820456 2.937272 1.762807 2.047261 6.676558 0.448510 -17.755029 -41.908938 -36.483913 0.000000 0.000000 0.000000 0.714304 1.016439 1.115060 1.616564 -27.002789 -5.319822 -0.423977 0.241703 -4.319865 13.443769 8.339146 -81.652337 -1.993099 -20.763944 -1.642229 0.000000 0.000000 0.000000 0.011074 1.260247 2.323693 -4.938187 -4.777089 8.552637 -7.157294 -2.589576 1.382221 20.302145 20.552924 64.227834 -11.092523 17.886592 9.669405 0.000000 0.000000 0.000000 
7.379386 116.780884 -10.154890 0.000000 0.000000 0.000000 -0.181356 8.598808 2.224411 -9.383911 9.080024 1.376650 17.965887 3.269997 5.557078 -6.131377 -0.081188 -8.620517 -2.143660 -3.382412 2.249684 0.000000 0.000000 0.000000 0.061688 7.540671 2.139786 0.281376 -9.112650 -0.706854 14.511220 0.759346 -2.026505 -16.452959 -24.746614 8.356469 0.731279 2.882153 -5.993602 0.000000 0.000000 0.000000 0.372231 9.100629 1.538737 2.843421 -1.323468 1.168278 -0.333734 0.154797 1.750433 0.145956 -0.436457 -0.002414 0.000000 0.000000 0.000000 1.904824 2.952555 1.767290 2.106711 6.690206 0.504138 -17.982385 -41.736971 -36.563140 0.000000 0.000000 0.000000 0.753647 1.008656 1.142700 1.657765 -27.108189 -5.315230 -0.552826 0.249101 -4.296082 13.638371 8.355060 -81.682369 -2.157868 -21.142724 -1.681095 0.000000 0.000000 0.000000 -0.016938 1.243364 2.389621 -4.834147 -4.965665 8.522851 -7.087787 -2.491157 1.424199 20.463136 20.171145 64.235552 -11.049506 17.682918 9.690453 0.000000 0.000000 0.000000 
7.274336 116.776901 -10.040190 0.000000 0.000000 0.000000 -0.157918 8.696286 2.192072 -9.375121 8.957397 1.364997 17.906094 3.408497 5.596880 -6.105689 0.060348 -8.565085 -2.225503 -3.371196 2.256415 0.000000 0.000000 0.000000 0.078602 7.623649 2.098327 0.317827 -9.117625 -0.595072 14.508497 0.660386 -2.038993 -16.407902 -24.738959 8.452826 0.543560 2.890821 -5.946733 0.000000 0.000000 0.000000 0.373810 9.184598 1.550025 2.811583 -1.292385 1.082558 -0.374155 0.173791 1.779857 0.145224 -0.447110 -0.000074 0.000000 0.000000 0.000000 2.006665 3.004035 1.799008 2.160509 6.603570 0.675246 -18.511153 -41.456574 -36.905623 0.000000 0.000000 0.000000 0.776525 1.032946 1.210395 1.653363 -27.336695 -5.353886 -0.730236 0.198515 -4.284080 13.821467 8.486482 -81.777309 -2.342166 -21.190129 -1.752818 0.000000 0.000000 0.000000 -0.038166 1.266013 2.493170 -4.740193 -5.291011 8.459177 -7.068974 -2.321278 1.563389 20.633662 19.745718 64.152361 -11.010209 17.591400 9.818825 0.000000 0.000000 0.000000 
7.174664 116.784088 -9.936159 0.000000 0.000000 0.000000 -0.115104 8.797255 2.125196 -9.396613 8.748788 1.324712 17.839559 3.626858 5.651377 -6.109941 0.279490 -8.598544 -2.309676 -3.347924 2.250466 0.000000 0.000000 0.000000 0.131090 7.713249 2.029096 0.352061 -9.090487 -0.460990 14.413735 0.523443 -2.063511 -16.383541 -24.702610 8.599180 0.490238 2.876915 -5.830314 0.000000 0.000000 0.000000 0.395735 9.265404 1.524081 2.770973 -1.266711 0.984258 -0.405489 0.225350 1.849105 0.132396 -0.451445 0.011140 0.000000 0.000000 0.000000 2.119338 3.088796 1.843651 2.204938 6.439820 0.940889 -19.307598 -41.097808 -37.452693 0.000000 0.000000 0.000000 0.770110 1.088672 1.304558 1.615692 -27.664932 -5.395960 -1.015060 0.087082 -4.359308 13.894639 8.705797 -81.867194 -2.524157 -20.828131 -1.845240 0.000000 0.000000 0.000000 -0.069449 1.322343 2.610117 -4.681877 -5.705248 8.341050 -7.056509 -2.189877 1.792242 20.770003 19.441560 64.061546 -10.974805 17.717483 9.986615 0.000000 0.000000 0.000000 
7.097227 116.802322 -9.829763 0.000000 0.000000 0.000000 -0.039321 8.891772 2.029347 -9.485612 8.456280 1.266695 17.830342 3.874295 5.716739 -6.141883 0.524272 -8.728368 -2.321724 -3.314907 2.233249 0.000000 0.000000 0.000000 0.215444 7.781784 1.935306 0.358697 -9.053689 -0.322962 14.265404 0.342313 -2.109402 -16.433486 -24.636486 8.755740 0.584535 2.844549 -5.668203 0.000000 0.000000 0.000000 0.458010 9.300072 1.439803 2.730646 -1.261849 0.910085 -0.418241 0.306642 1.935102 0.117354 -0.421194 0.008399 0.000000 0.000000 0.000000 2.233676 3.196468 1.882519 2.283985 6.226855 1.266123 -20.237463 -40.725990 -38.110137 0.000000 0.000000 0.000000 0.751395 1.166062 1.393622 1.570755 -28.049941 -5.414448 -1.266178 -0.020683 -4.539742 13.766659 8.906192 -81.869530 -2.688362 -20.170619 -1.936130 0.000000 0.000000 0.000000 -0.118982 1.405179 2.720501 -4.663776 -6.153010 8.111868 -6.985646 -2.155976 2.047747 20.841641 19.352964 64.023017 -10.932596 18.181673 10.139517 0.000000 0.000000 0.000000 
7.040710 116.836655 -9.734793 0.000000 0.000000 0.000000 0.069666 8.974240 1.911194 -9.642398 8.095524 1.204097 17.903478 4.108423 5.779230 -6.211714 0.728791 -8.921795 -2.286774 -3.283169 2.221500 0.000000 0.000000 0.000000 0.333051 7.794983 1.832240 0.304923 -9.037168 -0.203096 14.147182 0.110612 -2.169247 -16.504408 -24.542188 8.955775 0.730585 2.803172 -5.483213 0.000000 0.000000 0.000000 0.560703 9.272783 1.306460 2.706532 -1.297902 0.889738 -0.408510 0.402974 2.005089 0.118472 -0.363535 0.001945 0.000000 0.000000 0.000000 2.333866 3.313385 1.894046 2.426772 6.007013 1.600306 -21.090492 -40.430127 -38.724441 0.000000 0.000000 0.000000 0.731899 1.249715 1.444385 1.542558 -28.459298 -5.391293 -1.375607 -0.148809 -4.727440 13.408932 8.993064 -81.731068 -2.772548 -19.357200 -1.973227 0.000000 0.000000 0.000000 -0.175438 1.506631 2.803971 -4.681739 -6.566318 7.745523 -6.800558 -2.213193 2.286934 20.834478 19.503559 64.120204 -10.856053 19.010756 10.190738 0.000000 0.000000 0.000000 
7.024907 116.865372 -9.661257 0.000000 0.000000 0.000000 0.199818 9.020315 1.782069 -9.834860 7.721407 1.157443 18.044311 4.321151 5.816607 -6.311950 0.844491 -9.103096 -2.297945 -3.262551 2.222521 0.000000 0.000000 0.000000 0.456072 7.727631 1.726458 0.156809 -9.065127 -0.124287 14.136643 -0.145976 -2.231744 -16.528213 -24.421878 9.281273 0.780903 2.760493 -5.295950 0.000000 0.000000 0.000000 0.698936 9.174258 1.136082 2.713519 -1.392726 0.937414 -0.364085 0.505852 2.035874 0.132628 -0.296401 -0.012902 0.000000 0.000000 0.000000 2.397468 3.430242 1.861846 2.633034 5.806326 1.907819 -21.643340 -40.248194 -39.130762 0.000000 0.000000 0.000000 0.738689 1.320542 1.434049 1.541142 -28.852843 -5.323067 -1.339985 -0.234174 -4.938187 12.835345 8.886373 -81.478918 -2.695218 -18.572007 -1.883742 0.000000 0.000000 0.000000 -0.221826 1.616361 2.844266 -4.703061 -6.876979 7.298274 -6.586941 -2.289811 2.534309 20.715773 19.733796 64.299346 -10.730879 20.081342 10.076459 0.000000 0.000000 0.000000 
7.041484 116.857986 -9.614210 0.000000 0.000000 0.000000 0.348927 8.977731 1.665089 -10.060484 7.372230 1.146095 18.256515 4.500798 5.815290 -6.381237 0.856593 -9.229995 -2.426349 -3.259688 2.224086 0.000000 0.000000 0.000000 0.580443 7.570075 1.617723 -0.091751 -9.132345 -0.092836 14.317660 -0.414152 -2.290908 -16.521603 -24.264708 9.730451 0.685403 2.721119 -5.110560 0.000000 0.000000 0.000000 0.850000 8.985654 0.954410 2.777799 -1.559454 1.046513 -0.284544 0.608356 2.015624 0.150897 -0.230823 -0.024725 0.000000 0.000000 0.000000 2.411996 3.535645 1.778724 2.900862 5.662829 2.167221 -21.752737 -40.206042 -39.210665 0.000000 0.000000 0.000000 0.785268 1.370784 1.355960 1.562058 -29.187273 -5.229439 -1.130213 -0.208367 -5.089733 12.089252 8.601506 -81.215334 -2.391664 -17.968517 -1.610784 0.000000 0.000000 0.000000 -0.236466 1.727688 2.832625 -4.717714 -7.031727 6.817780 -6.447207 -2.408028 2.878368 20.429581 19.788011 64.439249 -10.596128 21.288813 9.790752 0.000000 0.000000 0.000000 
7.067513 116.783737 -9.603029 0.000000 0.000000 0.000000 0.511346 8.775781 1.571549 -10.283587 7.106790 1.174877 18.540187 4.678616 5.765502 -6.416106 0.798488 -9.250380 -2.662824 -3.272046 2.204440 0.000000 0.000000 0.000000 0.709566 7.315903 1.507333 -0.443997 -9.226123 -0.104130 14.733997 -0.707821 -2.339707 -16.563660 -24.041369 10.170331 0.564073 2.686317 -4.910230 0.000000 0.000000 0.000000 1.005576 8.706058 0.777798 2.929973 -1.809601 1.187806 -0.180004 0.710390 1.942110 0.163243 -0.193908 -0.027019 0.000000 0.000000 0.000000 2.388925 3.628937 1.641429 3.191166 5.606319 2.368192 -21.400618 -40.287389 -38.876788 0.000000 0.000000 0.000000 0.866150 1.403612 1.225211 1.595836 -29.435824 -5.139476 -0.761073 -0.049339 -5.147667 11.219429 8.295202 -81.046137 -1.812780 -17.630156 -1.122351 0.000000 0.000000 0.000000 -0.210910 1.830673 2.763177 -4.713515 -7.012506 6.397420 -6.444528 -2.517239 3.307974 19.974328 19.374825 64.250230 -10.497427 22.477900 9.348279 0.000000 0.000000 0.000000 
7.087365 116.636963 -9.641573 0.000000 0.000000 0.000000 0.688176 8.357669 1.487208 -10.473674 6.997000 1.242962 18.879690 4.910470 5.674624 -6.494000 0.750878 -9.119377 -2.915881 -3.293156 2.142685 0.000000 0.000000 0.000000 0.847969 6.934585 1.396346 -0.941514 -9.330497 -0.162896 15.341862 -1.020226 -2.376187 -16.686154 -23.711401 10.524352 0.495622 2.656376 -4.680793 0.000000 0.000000 0.000000 1.167011 8.292502 0.596292 3.191119 -2.137989 1.329785 -0.064444 0.819097 1.829672 0.165874 -0.172397 -0.016180 0.000000 0.000000 0.000000 2.350570 3.717934 1.460395 3.469891 5.658244 2.521121 -20.598124 -40.406183 -38.103146 0.000000 0.000000 0.000000 0.977830 1.428561 1.064721 1.626042 -29.596152 -5.082935 -0.345978 0.209469 -5.187620 10.262516 8.165873 -81.043855 -1.060450 -17.581213 -0.466710 0.000000 0.000000 0.000000 -0.158770 1.920402 2.640676 -4.700397 -6.845086 6.066097 -6.596165 -2.824163 3.794498 19.395287 18.368356 63.273547 -10.483845 23.576648 8.820644 0.000000 0.000000 0.000000 
7.075872 116.446625 -9.730425 0.000000 0.000000 0.000000 0.881017 7.683890 1.402096 -10.575551 7.080990 1.344721 19.221288 5.208086 5.555839 -6.703883 0.769747 -8.888019 -3.096432 -3.326419 2.036894 0.000000 0.000000 0.000000 1.012370 6.355309 1.286597 -1.655519 -9.409220 -0.291117 16.099932 -1.317122 -2.394399 -16.736019 -23.200223 10.872764 0.399145 2.638157 -4.418694 0.000000 0.000000 0.000000 1.348909 7.719341 0.403956 3.595073 -2.533575 1.437588 0.056374 0.927313 1.697921 0.154219 -0.164746 0.007563 0.000000 0.000000 0.000000 2.334762 3.806010 1.253006 3.681741 5.828838 2.640392 -19.574909 -40.405227 -36.979935 0.000000 0.000000 0.000000 1.098188 1.455101 0.906768 1.653219 -29.708591 -5.078731 0.016444 0.493988 -5.181971 9.372999 8.371740 -81.142675 -0.234151 -17.805480 0.265739 0.000000 0.000000 0.000000 -0.100689 1.996445 2.480578 -4.703325 -6.542575 5.793140 -6.846640 -3.391435 4.233844 18.765033 16.873342 61.107250 -10.581196 24.607937 8.258966 0.000000 0.000000 0.000000 
7.035954 116.248001 -9.886110 0.000000 0.000000 0.000000 1.096379 6.727418 1.295307 -10.568803 7.342253 1.478970 19.507645 5.528849 5.420764 -7.053097 0.870921 -8.698750 -3.206971 -3.375182 1.905333 0.000000 0.000000 0.000000 1.210353 5.515210 1.161090 -2.624104 -9.434153 -0.480471 16.950105 -1.569769 -2.392648 -16.528207 -22.466811 11.307786 0.167143 2.635203 -4.131183 0.000000 0.000000 0.000000 1.581118 6.947178 0.189365 4.160253 -2.977970 1.484906 0.181517 1.025608 1.562777 0.140162 -0.174850 0.033065 0.000000 0.000000 0.000000 2.344296 3.892763 1.039600 3.799465 6.121224 2.746830 -18.629776 -40.065357 -35.669768 0.000000 0.000000 0.000000 1.231097 1.488498 0.778530 1.708395 -29.833518 -5.077626 0.270198 0.633734 -5.183157 8.840501 8.972358 -81.142094 0.483381 -18.414880 0.931104 0.000000 0.000000 0.000000 -0.061819 2.049407 2.297890 -4.730961 -6.106773 5.536964 -7.038985 -4.127748 4.538332 18.189767 15.177676 57.444404 -10.770022 25.744373 7.743703 0.000000 0.000000 0.000000 
